<?xml version="1.0" encoding="UTF-8"?>
<svg id="Layer_1" xmlns="http://www.w3.org/2000/svg" viewBox="0 0 100 100">
  <defs>
    <style>
      .cls-1 {
        fill: #1d79ba;
      }

      .cls-2 {
        fill: #1777b9;
      }
    </style>
  </defs>
  <path class="cls-2" d="M48.14.64c0,.22.08.46.01.66-1.6,4.84-3.21,9.68-4.95,14.93-.76-1.19-1.3-2.05-1.84-2.9-2.12-3.35-4.21-6.72-6.36-10.05-.6-.92-.51-1.2.61-1.45,2.18-.48,4.45-.41,6.57-1.18,1.99,0,3.97,0,5.96,0Z"/>
  <path class="cls-2" d="M52.11.64c2.04.86,4.28.7,6.37,1.3,1.59.46,3.18.87,4.79,1.27.77.19.85.51.4,1.14-2.88,4.03-5.75,8.07-8.61,12.1-.61-.23-.54-.72-.66-1.11-1.44-4.67-2.41-9.49-4.1-14.09-.06-.16.1-.4.16-.61.55,0,1.1,0,1.66,0Z"/>
  <path class="cls-2" d="M99.44,50.95c-4.26-.6-8.35-1.91-12.54-2.81-.89-.19-1.77-.44-3.04-.76,4.43-3.33,8.58-6.45,12.85-9.67,1.27,3.54,1.85,7.05,2.36,10.59.05.35-.13.8.37.99v1.66Z"/>
  <path class="cls-2" d="M99.44,57.9c-.81,1.65-.68,3.48-1.02,5.22-.69,3.58-.65,3.59-3.71,1.74-3.47-2.09-6.94-4.19-10.67-6.44,5.04-1.77,9.77-3.43,14.51-5.1.38-.14.62.12.89.28v4.3Z"/>
  <path class="cls-2" d="M15.46,72.9c3.45-11.41,5.58-23.3,12.51-33.6-1.22-.65-2.59-1.45-4.03-2.12-1.03-.48-1.14-.87-.34-1.75,4.77-5.3,10.65-8.67,17.6-10.15,16.81-3.58,33.53,6.97,37.51,23.7,1.14,4.79,1.24,9.61-.1,14.39-.14.51-.17,1.06-.69,1.54-.07-4.85-.33-9.6-1.7-14.16-3.35-11.15-10.56-18.23-22.15-20.49-5.11-1-10.74.14-14.19,2.83,1.88-.28,3.58-.58,5.3-.79,14.88-1.76,27.88,8.97,29.17,23.94.35,4.06.28,8.04-.92,11.94-.26.84.22,1.23.63,1.72,4.55,5.4,9.1,10.79,13.65,16.19.35.42.69.84,1.2,1.47-3.02-.59-5.77-1.18-8.55-1.65-5.73-.96-11.49-1.43-17.29-.73-.92.11-1.28-.22-1.67-.9-1.06-1.92-2.17-3.82-3.27-5.72.58-.32.97.06,1.39.31,2.34,1.38,4.86,1.98,7.59,1.89,3.64-.12,7.27-.03,11.39.52-5.01-5.81-9.72-11.29-14.71-17.09,1.75.4,2.98,1.06,4.18,1.71,1.11.6,1.52.26,1.84-.84.65-2.22.72-4.49.48-6.73-.89-8.23-3.92-15.31-11.6-19.44-13.47-7.25-29.41.14-32.68,15.06-.02.1.03.21.05.36,6.05-1.26,12.2-1.4,18.33-1.72,1.22-.06,1.51.2,1.16,1.44-1.41,4.94-4.74,8.08-9.27,10.15-1.66.76-3.39,1.38-5.19,1.6-1.19.15-1.53.66-1.71,1.73-1.22,7.33-2.5,14.66-3.75,21.99-.23,1.35-.46,2.69-.74,4.38,2.56-1.1,4.86-2.09,7.16-3.08,4.3-1.85,8.55-3.84,12.92-5.51,3.32-1.27,5.49-3.55,7.04-6.61.92-1.82,1.6-3.74,2.27-5.71,1.79,3.26,1.14,10.8-1.12,13.6-.29.35-.59.64-1.03.77-9.6,2.87-18.5,7.41-27.48,11.74-1.52.73-3,.93-4.61.9-.79-.01-1.03-.17-.88-1.04,2.01-11.45,4.01-22.9,5.92-34.36.22-1.34.93-1.53,1.98-1.64,3.15-.34,6.18-1.13,8.95-2.73,1.67-.96,3.14-2.17,4.05-4.29-4.57.6-8.91.69-13.17,1.55-1.79.36-3,1.5-3.7,3.23-1.07,2.66-1.99,5.39-2.56,8.19-.38,1.88-1.24,3.07-3.07,3.6-.57.17-1.1.47-1.65.71-.15-.09-.3-.19-.44-.28Z"/>
  <path class="cls-2" d="M78.52,93.59c-3.71-.51-7.38-.68-11.07-.48-9.02.47-17.62,2.68-25.8,6.49-.57.27-1.14.36-1.76.35-1.98-.02-3.96,0-6,0,7.17-7.71,31.14-12.14,51.2-9.44-.74,1.48-1.8,2.65-2.78,3.85-.7.86-.55,1.35.22,2,1.26,1.06,2.46,2.2,3.71,3.33-3.65.91-6.76-.14-9.03-2.92-.37-.45-.32-.74-.02-1.14.45-.61,1.05-1.12,1.33-2.03Z"/>
  <path class="cls-2" d="M65.14,20.48c0-3.35-.02-6.41,0-9.46.02-1.98.14-3.97.14-5.95,0-.85.22-1.07,1.03-.74,3.67,1.52,7.24,3.24,10.53,5.48.39.27,1.18.52.35,1.18-3.96,3.12-7.93,6.24-12.06,9.49Z"/>
  <path class="cls-2" d="M80.02,36.43c3.39-4.43,6.5-8.49,9.6-12.55.45-.59.75-.46,1.1.1,2.15,3.42,3.97,6.99,5.35,10.79.21.58.3,1.02-.61,1.05-5,.18-10,.4-15.43.63Z"/>
  <path class="cls-2" d="M32.21,18.57c-4.08-3.47-8.15-6.94-12.37-10.52,2.61-1.65,5.27-2.79,7.97-3.82,1.28-.49,2.62-.84,3.89-1.33,1.03-.4,1.19-.02,1.18.93-.04,4.83-.02,9.67-.02,14.51-.22.08-.44.16-.66.24Z"/>
  <path class="cls-2" d="M22.85,24.44c-5.12-2.29-9.78-4.38-14.45-6.45-.68-.3-.64-.6-.17-1.06,2.92-2.86,6.03-5.47,9.5-7.65.46-.29.86-.52,1.07.27,1.3,4.81,2.61,9.62,4.04,14.89Z"/>
  <path class="cls-2" d="M73.97,27.41c1.76-5.21,3.4-10.1,5.04-14.98.2-.58.5-.64.97-.25,3.2,2.63,6.18,5.49,8.75,8.75.29.37.58.68-.15.96-4.77,1.79-9.53,3.6-14.61,5.52Z"/>
  <path class="cls-2" d="M81.43,68.88c5.43-.24,10.44-.47,15.59-.7-.22,1.73-.96,3.19-1.54,4.68-.86,2.21-1.94,4.32-3.13,6.37-.3.51-.54,1.15-1.27.33-3.11-3.48-6.25-6.94-9.64-10.69Z"/>
  <path class="cls-2" d="M14.16,32.74c-4.33-1.78-8.65-3.56-12.98-5.32-.69-.28-.79-.59-.38-1.22,1.6-2.45,3.34-4.79,5.31-6.96.35-.38.66-.61,1,.01,2.46,4.4,4.93,8.79,7.4,13.19-.12.1-.24.2-.35.3Z"/>
  <path class="cls-1" d="M61.96,25.51c-2.47-1.06-4.81-1.79-7.39-2.48,2.3-2.58,4.45-4.99,6.94-7.77.16,3.6.3,6.78.45,10.25Z"/>
  <path class="cls-1" d="M72.05,20.43c-.78,3.29-1.48,6.21-2.18,9.13-.11.46-.27.87-.87.38-1.73-1.43-3.63-2.62-5.84-3.84,3.01-1.92,5.8-3.7,8.9-5.67Z"/>
  <path class="cls-1" d="M81.24,28.78c-1.8,3.08-3.42,5.87-5.16,8.86-1.46-1.92-2.82-3.74-4.44-5.34-.51-.51-.24-.72.31-.87,2.99-.84,5.98-1.7,9.3-2.64Z"/>
  <path class="cls-1" d="M49.28,13.1c1.08,3.12,2.02,5.87,2.97,8.61.2.58.43,1.1-.6.94-1.85-.29-3.72-.25-5.58-.18-.78.03-1.16-.05-.71-.96,1.28-2.66,2.51-5.34,3.93-8.39Z"/>
  <path class="cls-1" d="M36.92,14.6c2.07,2.85,3.89,5.36,5.83,8.03-2.46.59-4.8,1-7.27,1.97.48-3.35.93-6.46,1.44-10Z"/>
  <path class="cls-1" d="M27.28,29.04c-.46-3.27-.88-6.34-1.37-9.83,2.76,2.16,5.19,4.07,7.77,6.08-2.27,1.12-4.3,2.27-6.4,3.75Z"/>
  <path class="cls-2" d="M80.09,45.75c-.48-1.39-1.14-3.37-2.11-5.22-.4-.77-.28-1.05.64-1.03,2.69.04,5.38.01,8.42.01-2.55,2.29-4.8,4.31-6.95,6.24Z"/>
  <path class="cls-1" d="M25.68,30.22c-1.79,1.74-3.47,3.32-5.11,5.4-1.26-2.99-2.44-5.78-3.81-9.03,3.2,1.3,5.98,2.44,8.92,3.64Z"/>
  <path class="cls-1" d="M80.92,49.89c3.31.95,6.35,1.83,9.81,2.82-3.23,1.45-6.09,2.73-9.15,4.11-.02-2.39-.18-4.56-.66-6.93Z"/>
  <path class="cls-1" d="M81.37,59.84c2.8,1.93,5.3,3.66,8.19,5.65-3.27.34-6.04.63-8.8.93-.85.09-.9-.26-.67-.96.57-1.72,1.12-3.44,1.29-5.62Z"/>
  <path class="cls-1" d="M57.98,99.87c5.61-.83,11.17-.83,16.74,0h-16.74Z"/>
</svg>